# xmcd
#
# Track frame offsets:
#       150
#       17393
#       33696
#       49605
#       69608
#       89908
#       108164
#       122647
#       136573
#       151464
#       166986
#       183039
#       203600
#       219522
#
# Disc length: 3219 seconds
#
# Revision: 1
# Processed by: cddbd v1.4PL0 Copyright (c) Steve Scherf et al.
# Submitted via: MusiCat 1.1
#
DISCID=b40c910e
DTITLE=Armatrading, Joan - The Very Best of
DYEAR=1900
DGENRE=
TTITLE0=Love and Affection
TTITLE1=Down To Zero
TTITLE2=Drop The Pilot
TTITLE3=Show Some Emotion
TTITLE4=The Shouting Stage
TTITLE5=Willow
TTITLE6=Rosie
TTITLE7=I'm Lucky
TTITLE8=Me,Myself,I
TTITLE9=(I love it when you) Call Me Names
TTITLE10=Bottom To The top
TTITLE11=More Than One  Kind of Love
TTITLE12=The Weakness In Me
TTITLE13=All The Way From America
EXTD=0\n\n\n
EXTT0=
EXTT1=
EXTT2=
EXTT3=
EXTT4=
EXTT5=
EXTT6=
EXTT7=
EXTT8=
EXTT9=
EXTT10=
EXTT11=
EXTT12=
EXTT13=
PLAYORDER=
